<?xml version="1.0" standalone="no"?>
<!DOCTYPE svg PUBLIC "-//W3C//DTD SVG 20010904//EN"
 "http://www.w3.org/TR/2001/REC-SVG-20010904/DTD/svg10.dtd">
<svg version="1.0" xmlns="http://www.w3.org/2000/svg"
 width="111.000000pt" height="117.000000pt" viewBox="0 0 111.000000 117.000000"
 preserveAspectRatio="xMidYMid meet">

<g transform="translate(0.000000,117.000000) scale(0.100000,-0.100000)"
fill="#000000" stroke="none">
<path d="M380 1015 l0 -44 155 -3 155 -3 0 48 0 47 -155 0 -155 0 0 -45z"/>
<path d="M270 795 l0 -155 50 0 50 0 0 118 c0 64 -3 134 -6 155 -6 36 -8 37
-50 37 l-44 0 0 -155z"/>
<path d="M700 795 l0 -155 45 0 45 0 0 155 0 155 -45 0 -45 0 0 -155z"/>
<path d="M380 580 l0 -50 -110 0 -110 0 0 -109 0 -110 -53 -3 -52 -3 -3 -97
-3 -98 458 -2 c252 -2 468 -2 481 0 21 3 22 7 22 102 l0 99 -52 3 -53 3 -3
108 -3 107 -104 0 -105 0 0 50 0 50 -50 0 -50 0 0 -50 0 -50 -60 0 -60 0 0 50
0 50 -45 0 -45 0 0 -50z m430 -210 l0 -60 -60 0 -60 0 0 53 c0 30 3 57 7 60 3
4 30 7 60 7 l53 0 0 -60z"/>
</g>
</svg>
